HIERARCHY
ROOT Bip001_Pelvis
{
  OFFSET -7.25697 94.004 -3.48878
  CHANNELS 6 Xposition Yposition Zposition Zrotation Xrotation Yrotation
  JOINT Bip001_Spine
  {
    OFFSET 1.44608e-005 10.4157 -0.0118244
    CHANNELS 3 Zrotation Xrotation Yrotation
    JOINT Bip001_L_Thigh
    {
      OFFSET 11.2582 -10.4157 0.0118432
      CHANNELS 3 Zrotation Xrotation Yrotation
      JOINT Bip001_L_Calf
      {
        OFFSET -0.720717 -44.8687 0.366937
        CHANNELS 3 Zrotation Xrotation Yrotation
        JOINT Bip001_L_Foot
        {
          OFFSET -0.664439 -41.3745 -3.62995
          CHANNELS 3 Zrotation Xrotation Yrotation
          JOINT Bip001_L_Toe0
          {
            OFFSET 0.0541047 -10.4146 13.4033
            CHANNELS 3 Zrotation Xrotation Yrotation
            End Site
            {
              OFFSET -1.04503e-005 0 7.70137
            }
          }
        }
      }
    }
    JOINT Bip001_R_Thigh
    {
      OFFSET -11.2582 -10.4156 0.0118122
      CHANNELS 3 Zrotation Xrotation Yrotation
      JOINT Bip001_R_Calf
      {
        OFFSET 0.72059 -44.8687 0.36676
        CHANNELS 3 Zrotation Xrotation Yrotation
        JOINT Bip001_R_Foot
        {
          OFFSET 0.664321 -41.3745 -3.62979
          CHANNELS 3 Zrotation Xrotation Yrotation
          JOINT Bip001_R_Toe0
          {
            OFFSET -0.05417 -10.4146 13.4033
            CHANNELS 3 Zrotation Xrotation Yrotation
            End Site
            {
              OFFSET -1.04873e-005 0 7.70137
            }
          }
        }
      }
    }
    JOINT Bip001_Spine1
    {
      OFFSET 1.90638e-005 14.8539 1.10727
      CHANNELS 3 Zrotation Xrotation Yrotation
      JOINT Bip001_Spine2
      {
        OFFSET 2.28934e-005 14.7848 -1.7233
        CHANNELS 3 Zrotation Xrotation Yrotation
        JOINT Bip001_Neck
        {
          OFFSET 2.24514e-005 15.6905 -0.498826
          CHANNELS 3 Zrotation Xrotation Yrotation
          JOINT Bip001_L_Clavicle
          {
            OFFSET 6.17691 -0.000591152 0.00852867
            CHANNELS 3 Zrotation Xrotation Yrotation
            JOINT Bip001_L_UpperArm
            {
              OFFSET 11.773 -0.0611878 0.00197697
              CHANNELS 3 Zrotation Xrotation Yrotation
              JOINT Bip001_L_Forearm
              {
                OFFSET 26.4515 0.0817566 -2.1958
                CHANNELS 3 Zrotation Xrotation Yrotation
                JOINT Bip001_L_Hand
                {
                  OFFSET 32.8677 0.156744 1.67112
                  CHANNELS 3 Zrotation Xrotation Yrotation
                  JOINT Bip001_L_Finger0
                  {
                    OFFSET 6.16268 -2.25225 6.01674
                    CHANNELS 3 Zrotation Xrotation Yrotation
                    End Site
                    {
                      OFFSET 4.30499 -1.46662 0.618148
                    }
                  }
                  JOINT Bip001_L_Finger1
                  {
                    OFFSET 11.2958 -0.718373 -0.201963
                    CHANNELS 3 Zrotation Xrotation Yrotation
                    End Site
                    {
                      OFFSET 6.31953 -0.405162 -0.0802303
                    }
                  }
                }
              }
            }
          }
          JOINT Bip001_R_Clavicle
          {
            OFFSET -6.17691 -0.000574027 0.00851165
            CHANNELS 3 Zrotation Xrotation Yrotation
            JOINT Bip001_R_UpperArm
            {
              OFFSET -11.773 -0.0611516 0.00194365
              CHANNELS 3 Zrotation Xrotation Yrotation
              JOINT Bip001_R_Forearm
              {
                OFFSET -26.4514 0.0822335 -2.19736
                CHANNELS 3 Zrotation Xrotation Yrotation
                JOINT Bip001_R_Hand
                {
                  OFFSET -32.8679 0.156816 1.67144
                  CHANNELS 3 Zrotation Xrotation Yrotation
                  JOINT Bip001_R_Finger0
                  {
                    OFFSET -6.16272 -2.25224 6.0167
                    CHANNELS 3 Zrotation Xrotation Yrotation
                    End Site
                    {
                      OFFSET -4.30501 -1.46661 0.618134
                    }
                  }
                  JOINT Bip001_R_Finger1
                  {
                    OFFSET -11.2958 -0.718343 -0.201994
                    CHANNELS 3 Zrotation Xrotation Yrotation
                    End Site
                    {
                      OFFSET -6.31955 -0.405145 -0.0802476
                    }
                  }
                }
              }
            }
          }
          JOINT Bip001_Head
          {
            OFFSET 1.11782e-005 11.4912 2.09908
            CHANNELS 3 Zrotation Xrotation Yrotation
            End Site
            {
              OFFSET 2.95144e-005 21.2823 -2.83069e-005
            }
          }
        }
      }
    }
  }
}
MOTION
Frames:	5
Frame Time:	0.0333333
-7.53555 93.9521 -3.44413 -1.76892 3.44711 1.55268 0.271085 -0.549728 0.234621 7.29776 -23.461 -1.40847 0.198353 37.6114 -0.556086 -3.91 -10.8475 3.86792 3.97569e-016 2.38542e-015 -1.59027e-015 1.98324 -20.1995 5.30091 -0.174651 38.7878 0.668165 10.8501 -32.913 -8.59214 7.14989e-008 -8.09531e-007 4.977e-007 0.5352 -1.10994 0.462118 0.536082 -1.11122 0.453664 -9.34198 -6.34664 -3.47546 -19.7518 11.1522 -9.44774 -40.9191 24.3331 10.9745 -2.51116 0.667934 -26.2868 4.21747 14.3658 -5.85673 -6.36111e-015 9.54166e-015 -1.59028e-015 -6.36111e-015 9.54167e-015 -0 33.6839 12.6528 13.4939 40.6816 40.669 -19.9263 4.08006 1.91654 50.265 -9.46763 -9.19113 -6.97175 -3.18055e-015 -9.54166e-015 -3.18055e-015 -6.36111e-015 -9.54167e-015 -0 2.50668 5.64199 -7.03109 
-7.51723 93.9557 -3.44763 -1.77197 3.43329 1.60947 0.279505 -0.549705 0.235736 7.27053 -23.4525 -1.43652 0.198347 37.611 -0.556082 -3.92612 -10.8622 3.85098 8.94529e-016 7.9514e-016 -7.95137e-016 1.96569 -20.173 5.30046 -0.17438 38.7697 0.667995 10.84 -32.9111 -8.61585 7.14989e-008 -8.09531e-007 4.977e-007 0.559603 -1.11018 0.46496 0.560266 -1.11105 0.458719 -9.44225 -6.26367 -3.44571 -19.6347 11.0939 -9.51314 -41.0113 24.3622 11.0092 -2.51141 0.668158 -26.2863 4.21829 14.3482 -5.85612 8.82781e-032 3.18055e-015 -1.59028e-015 1.76556e-031 3.18056e-015 -3.18055e-015 33.5548 12.4974 13.4251 40.7993 40.8585 -19.75 4.08175 1.91861 50.2295 -9.58761 -9.24907 -7.00772 3.18055e-015 3.18055e-015 -1.59028e-015 3.18055e-015 0 -0 2.49898 5.62018 -7.02705 
-7.48085 93.9631 -3.45445 -1.77801 3.40347 1.723 0.302624 -0.549542 0.237141 7.20406 -23.4293 -1.49891 0.19833 37.6095 -0.556071 -3.96076 -10.8927 3.81784 5.96353e-016 0 -7.95137e-016 1.92086 -20.1187 5.29782 -0.173827 38.7327 0.667649 10.8235 -32.9066 -8.66611 7.14989e-008 -8.09531e-007 4.977e-007 0.608066 -1.11018 0.473222 0.607645 -1.11038 0.477895 -9.62802 -6.10927 -3.37757 -19.4166 10.9887 -9.64457 -41.1865 24.4135 11.0765 -2.51165 0.668309 -26.2837 4.22743 14.3126 -5.85496 -8.82781e-032 3.18055e-015 1.59028e-015 3.18055e-015 3.18056e-015 -0 33.3026 12.1997 13.287 41.0163 41.224 -19.4127 4.08235 1.92072 50.1701 -9.8122 -9.34443 -7.08291 3.18055e-015 3.18055e-015 -3.18055e-015 0 3.18056e-015 -0 2.46926 5.57528 -7.01253 
-7.45083 93.9693 -3.4598 -1.78329 3.38289 1.81891 0.319859 -0.549252 0.239379 7.14834 -23.4128 -1.55781 0.1983 37.6071 -0.556054 -3.98501 -10.91 3.79826 -4.96961e-016 7.9514e-016 -2.38541e-015 1.88543 -20.077 5.29416 -0.1734 38.7041 0.667382 10.8114 -32.9023 -8.70637 7.14989e-008 -8.09531e-007 4.977e-007 0.643247 -1.10932 0.477723 0.642493 -1.10921 0.486453 -9.75017 -6.00727 -3.32101 -19.2731 10.9227 -9.73909 -41.3103 24.4401 11.1236 -2.51194 0.668406 -26.2748 4.24026 14.2836 -5.85393 2.64834e-031 3.18055e-015 -4.77083e-015 0 0 -3.18055e-015 33.1025 11.9905 13.1851 41.1571 41.495 -19.165 4.08174 1.92022 50.1514 -9.9628 -9.37266 -7.15587 -3.18055e-015 -9.54166e-015 -0 -3.18055e-015 -3.18056e-015 -1.59028e-015 2.42774 5.53617 -6.9821 
-7.42373 93.975 -3.46433 -1.7884 3.36821 1.90818 0.333624 -0.548852 0.241443 7.09897 -23.4011 -1.61292 0.198235 37.6018 -0.556014 -4.00206 -10.9164 3.78503 -5.96353e-016 -7.9514e-016 -2.38541e-015 1.85383 -20.0431 5.28582 -0.173037 38.6798 0.667155 10.7995 -32.8978 -8.7406 7.14988e-008 -8.09531e-007 4.977e-007 0.670506 -1.10775 0.479953 0.670002 -1.10756 0.489461 -9.82613 -5.94146 -3.27059 -19.186 10.8843 -9.80672 -41.4008 24.4457 11.157 -2.51221 0.66842 -26.2641 4.25326 14.2582 -5.85295 -1.76556e-031 -6.36111e-015 -1.59028e-015 -0 -3.18056e-015 -0 32.9237 11.839 13.1056 41.2481 41.7102 -18.9703 4.08113 1.91879 50.1613 -10.0636 -9.34745 -7.23448 -7.94503e-031 9.54166e-015 4.77083e-015 -3.18055e-015 6.36111e-015 4.77083e-015 2.36662 5.49795 -6.93854 
